<mxfile host="app.diagrams.net" modified="2023-12-11T18:41:56.221Z" agent="Mozilla/5.0 (Windows NT 10.0; Win64; x64) AppleWebKit/537.36 (KHTML, like Gecko) Chrome/120.0.0.0 Safari/537.36" etag="TdREl7CsDASsphj3R2Eu" version="22.1.7" type="device">
  <diagram name="Page-1" id="1rHPk0IWIDlfLcnpo2hS">
    <mxGraphModel dx="1050" dy="569" grid="1" gridSize="10" guides="1" tooltips="1" connect="1" arrows="1" fold="1" page="1" pageScale="1" pageWidth="850" pageHeight="1100" math="0" shadow="0">
      <root>
        <mxCell id="0" />
        <mxCell id="1" parent="0" />
        <mxCell id="2-meuyPm4zg7NjoBHuvu-1" value="Гость" style="shape=umlActor;verticalLabelPosition=bottom;verticalAlign=top;html=1;outlineConnect=0;" vertex="1" parent="1">
          <mxGeometry x="340" y="30" width="30" height="60" as="geometry" />
        </mxCell>
        <mxCell id="2-meuyPm4zg7NjoBHuvu-2" value="Пользователь" style="shape=umlActor;verticalLabelPosition=bottom;verticalAlign=top;html=1;outlineConnect=0;" vertex="1" parent="1">
          <mxGeometry x="340" y="200" width="30" height="60" as="geometry" />
        </mxCell>
        <mxCell id="2-meuyPm4zg7NjoBHuvu-3" value="Авторизация" style="ellipse;whiteSpace=wrap;html=1;" vertex="1" parent="1">
          <mxGeometry x="455" width="105" height="50" as="geometry" />
        </mxCell>
        <mxCell id="2-meuyPm4zg7NjoBHuvu-4" value="Регистрация" style="ellipse;whiteSpace=wrap;html=1;" vertex="1" parent="1">
          <mxGeometry x="455" y="70" width="105" height="50" as="geometry" />
        </mxCell>
        <mxCell id="2-meuyPm4zg7NjoBHuvu-5" value="" style="endArrow=classic;html=1;rounded=0;entryX=0;entryY=0.5;entryDx=0;entryDy=0;" edge="1" parent="1" source="2-meuyPm4zg7NjoBHuvu-1" target="2-meuyPm4zg7NjoBHuvu-3">
          <mxGeometry width="50" height="50" relative="1" as="geometry">
            <mxPoint x="370" y="110" as="sourcePoint" />
            <mxPoint x="440.71067811865476" y="60" as="targetPoint" />
          </mxGeometry>
        </mxCell>
        <mxCell id="2-meuyPm4zg7NjoBHuvu-6" value="" style="endArrow=classic;html=1;rounded=0;entryX=0;entryY=0.5;entryDx=0;entryDy=0;" edge="1" parent="1" source="2-meuyPm4zg7NjoBHuvu-1" target="2-meuyPm4zg7NjoBHuvu-4">
          <mxGeometry width="50" height="50" relative="1" as="geometry">
            <mxPoint x="370" y="110" as="sourcePoint" />
            <mxPoint x="440.71067811865476" y="60" as="targetPoint" />
          </mxGeometry>
        </mxCell>
        <mxCell id="2-meuyPm4zg7NjoBHuvu-8" value="Изменить данные аккаунта" style="ellipse;whiteSpace=wrap;html=1;" vertex="1" parent="1">
          <mxGeometry x="150" y="110" width="120" height="70" as="geometry" />
        </mxCell>
        <mxCell id="2-meuyPm4zg7NjoBHuvu-11" value="" style="endArrow=classic;html=1;rounded=0;exitX=0;exitY=0.3333333333333333;exitDx=0;exitDy=0;exitPerimeter=0;entryX=1;entryY=0.5;entryDx=0;entryDy=0;" edge="1" parent="1" source="2-meuyPm4zg7NjoBHuvu-2" target="2-meuyPm4zg7NjoBHuvu-8">
          <mxGeometry width="50" height="50" relative="1" as="geometry">
            <mxPoint x="230" y="340" as="sourcePoint" />
            <mxPoint x="280" y="290" as="targetPoint" />
          </mxGeometry>
        </mxCell>
        <mxCell id="2-meuyPm4zg7NjoBHuvu-12" value="Просмотр списка видеоигр" style="ellipse;whiteSpace=wrap;html=1;" vertex="1" parent="1">
          <mxGeometry x="500" y="180" width="120" height="80" as="geometry" />
        </mxCell>
        <mxCell id="2-meuyPm4zg7NjoBHuvu-13" value="" style="endArrow=classic;html=1;rounded=0;exitX=1;exitY=0.3333333333333333;exitDx=0;exitDy=0;exitPerimeter=0;entryX=0;entryY=0.5;entryDx=0;entryDy=0;" edge="1" parent="1" source="2-meuyPm4zg7NjoBHuvu-2" target="2-meuyPm4zg7NjoBHuvu-12">
          <mxGeometry width="50" height="50" relative="1" as="geometry">
            <mxPoint x="390" y="190" as="sourcePoint" />
            <mxPoint x="440" y="140" as="targetPoint" />
          </mxGeometry>
        </mxCell>
        <mxCell id="2-meuyPm4zg7NjoBHuvu-14" value="Добавить в список желаемого" style="ellipse;whiteSpace=wrap;html=1;" vertex="1" parent="1">
          <mxGeometry x="620" y="80" width="120" height="60" as="geometry" />
        </mxCell>
        <mxCell id="2-meuyPm4zg7NjoBHuvu-15" value="Удалить из списка желаемого" style="ellipse;whiteSpace=wrap;html=1;" vertex="1" parent="1">
          <mxGeometry x="730" y="130" width="120" height="60" as="geometry" />
        </mxCell>
        <mxCell id="2-meuyPm4zg7NjoBHuvu-16" value="Добавить в корзину" style="ellipse;whiteSpace=wrap;html=1;" vertex="1" parent="1">
          <mxGeometry x="730" y="210" width="120" height="50" as="geometry" />
        </mxCell>
        <mxCell id="2-meuyPm4zg7NjoBHuvu-17" value="Удалить из корзины" style="ellipse;whiteSpace=wrap;html=1;" vertex="1" parent="1">
          <mxGeometry x="700" y="280" width="120" height="50" as="geometry" />
        </mxCell>
        <mxCell id="2-meuyPm4zg7NjoBHuvu-18" value="Купить игру&lt;br&gt;" style="ellipse;whiteSpace=wrap;html=1;" vertex="1" parent="1">
          <mxGeometry x="610" y="330" width="120" height="50" as="geometry" />
        </mxCell>
        <mxCell id="2-meuyPm4zg7NjoBHuvu-20" value="Просмотр корзины" style="ellipse;whiteSpace=wrap;html=1;" vertex="1" parent="1">
          <mxGeometry x="400" y="330" width="120" height="50" as="geometry" />
        </mxCell>
        <mxCell id="2-meuyPm4zg7NjoBHuvu-21" value="Купить игры" style="ellipse;whiteSpace=wrap;html=1;" vertex="1" parent="1">
          <mxGeometry x="500" y="430" width="120" height="40" as="geometry" />
        </mxCell>
        <mxCell id="2-meuyPm4zg7NjoBHuvu-22" value="Очистить корзину" style="ellipse;whiteSpace=wrap;html=1;" vertex="1" parent="1">
          <mxGeometry x="295" y="430" width="120" height="40" as="geometry" />
        </mxCell>
        <mxCell id="2-meuyPm4zg7NjoBHuvu-23" value="Просмотр библиотеки" style="ellipse;whiteSpace=wrap;html=1;" vertex="1" parent="1">
          <mxGeometry x="90" y="260" width="115" height="50" as="geometry" />
        </mxCell>
        <mxCell id="2-meuyPm4zg7NjoBHuvu-24" value="Добавить в избранное" style="ellipse;whiteSpace=wrap;html=1;" vertex="1" parent="1">
          <mxGeometry x="190" y="370" width="110" height="50" as="geometry" />
        </mxCell>
        <mxCell id="2-meuyPm4zg7NjoBHuvu-25" value="Удалить из избранного" style="ellipse;whiteSpace=wrap;html=1;" vertex="1" parent="1">
          <mxGeometry y="375" width="120" height="45" as="geometry" />
        </mxCell>
        <mxCell id="2-meuyPm4zg7NjoBHuvu-26" value="" style="endArrow=classic;html=1;rounded=0;exitX=0.78;exitY=0.063;exitDx=0;exitDy=0;exitPerimeter=0;dashed=1;" edge="1" parent="1" source="2-meuyPm4zg7NjoBHuvu-12" target="2-meuyPm4zg7NjoBHuvu-14">
          <mxGeometry width="50" height="50" relative="1" as="geometry">
            <mxPoint x="550" y="180" as="sourcePoint" />
            <mxPoint x="600" y="130" as="targetPoint" />
          </mxGeometry>
        </mxCell>
        <mxCell id="2-meuyPm4zg7NjoBHuvu-27" value="" style="endArrow=classic;html=1;rounded=0;dashed=1;exitX=0.993;exitY=0.363;exitDx=0;exitDy=0;exitPerimeter=0;entryX=0;entryY=0.5;entryDx=0;entryDy=0;" edge="1" parent="1" source="2-meuyPm4zg7NjoBHuvu-12" target="2-meuyPm4zg7NjoBHuvu-15">
          <mxGeometry width="50" height="50" relative="1" as="geometry">
            <mxPoint x="130" y="520" as="sourcePoint" />
            <mxPoint x="180" y="470" as="targetPoint" />
          </mxGeometry>
        </mxCell>
        <mxCell id="2-meuyPm4zg7NjoBHuvu-28" value="" style="endArrow=classic;html=1;rounded=0;dashed=1;exitX=1;exitY=0.5;exitDx=0;exitDy=0;entryX=0;entryY=0.5;entryDx=0;entryDy=0;" edge="1" parent="1" source="2-meuyPm4zg7NjoBHuvu-12" target="2-meuyPm4zg7NjoBHuvu-16">
          <mxGeometry width="50" height="50" relative="1" as="geometry">
            <mxPoint x="140" y="530" as="sourcePoint" />
            <mxPoint x="190" y="480" as="targetPoint" />
          </mxGeometry>
        </mxCell>
        <mxCell id="2-meuyPm4zg7NjoBHuvu-29" value="" style="endArrow=classic;html=1;rounded=0;dashed=1;exitX=1.02;exitY=0.653;exitDx=0;exitDy=0;exitPerimeter=0;entryX=0;entryY=0;entryDx=0;entryDy=0;" edge="1" parent="1" source="2-meuyPm4zg7NjoBHuvu-12" target="2-meuyPm4zg7NjoBHuvu-17">
          <mxGeometry width="50" height="50" relative="1" as="geometry">
            <mxPoint x="150" y="540" as="sourcePoint" />
            <mxPoint x="200" y="490" as="targetPoint" />
          </mxGeometry>
        </mxCell>
        <mxCell id="2-meuyPm4zg7NjoBHuvu-30" value="" style="endArrow=classic;html=1;rounded=0;dashed=1;exitX=0.653;exitY=1.013;exitDx=0;exitDy=0;exitPerimeter=0;" edge="1" parent="1" source="2-meuyPm4zg7NjoBHuvu-12" target="2-meuyPm4zg7NjoBHuvu-18">
          <mxGeometry width="50" height="50" relative="1" as="geometry">
            <mxPoint x="160" y="550" as="sourcePoint" />
            <mxPoint x="210" y="500" as="targetPoint" />
          </mxGeometry>
        </mxCell>
        <mxCell id="2-meuyPm4zg7NjoBHuvu-31" value="" style="endArrow=classic;html=1;rounded=0;exitX=1;exitY=1;exitDx=0;exitDy=0;exitPerimeter=0;entryX=0.5;entryY=0;entryDx=0;entryDy=0;" edge="1" parent="1" source="2-meuyPm4zg7NjoBHuvu-2" target="2-meuyPm4zg7NjoBHuvu-20">
          <mxGeometry width="50" height="50" relative="1" as="geometry">
            <mxPoint x="170" y="490" as="sourcePoint" />
            <mxPoint x="220" y="440" as="targetPoint" />
          </mxGeometry>
        </mxCell>
        <mxCell id="2-meuyPm4zg7NjoBHuvu-32" value="" style="endArrow=classic;html=1;rounded=0;entryX=0.943;entryY=0.244;entryDx=0;entryDy=0;entryPerimeter=0;" edge="1" parent="1" source="2-meuyPm4zg7NjoBHuvu-2" target="2-meuyPm4zg7NjoBHuvu-23">
          <mxGeometry width="50" height="50" relative="1" as="geometry">
            <mxPoint x="190" y="530" as="sourcePoint" />
            <mxPoint x="240" y="480" as="targetPoint" />
          </mxGeometry>
        </mxCell>
        <mxCell id="2-meuyPm4zg7NjoBHuvu-33" value="" style="endArrow=classic;html=1;rounded=0;dashed=1;exitX=0;exitY=1;exitDx=0;exitDy=0;entryX=0.5;entryY=0;entryDx=0;entryDy=0;" edge="1" parent="1" source="2-meuyPm4zg7NjoBHuvu-20" target="2-meuyPm4zg7NjoBHuvu-22">
          <mxGeometry width="50" height="50" relative="1" as="geometry">
            <mxPoint x="170" y="560" as="sourcePoint" />
            <mxPoint x="220" y="510" as="targetPoint" />
          </mxGeometry>
        </mxCell>
        <mxCell id="2-meuyPm4zg7NjoBHuvu-34" value="" style="endArrow=classic;html=1;rounded=0;dashed=1;exitX=1;exitY=1;exitDx=0;exitDy=0;entryX=0.5;entryY=0;entryDx=0;entryDy=0;" edge="1" parent="1" source="2-meuyPm4zg7NjoBHuvu-20" target="2-meuyPm4zg7NjoBHuvu-21">
          <mxGeometry width="50" height="50" relative="1" as="geometry">
            <mxPoint x="180" y="570" as="sourcePoint" />
            <mxPoint x="230" y="520" as="targetPoint" />
          </mxGeometry>
        </mxCell>
        <mxCell id="2-meuyPm4zg7NjoBHuvu-35" value="" style="endArrow=classic;html=1;rounded=0;dashed=1;exitX=1;exitY=1;exitDx=0;exitDy=0;entryX=0.5;entryY=0;entryDx=0;entryDy=0;" edge="1" parent="1" source="2-meuyPm4zg7NjoBHuvu-23" target="2-meuyPm4zg7NjoBHuvu-24">
          <mxGeometry width="50" height="50" relative="1" as="geometry">
            <mxPoint x="190" y="580" as="sourcePoint" />
            <mxPoint x="240" y="530" as="targetPoint" />
          </mxGeometry>
        </mxCell>
        <mxCell id="2-meuyPm4zg7NjoBHuvu-36" value="" style="endArrow=classic;html=1;rounded=0;dashed=1;exitX=0;exitY=1;exitDx=0;exitDy=0;entryX=0.5;entryY=0;entryDx=0;entryDy=0;" edge="1" parent="1" source="2-meuyPm4zg7NjoBHuvu-23" target="2-meuyPm4zg7NjoBHuvu-25">
          <mxGeometry width="50" height="50" relative="1" as="geometry">
            <mxPoint x="200" y="590" as="sourcePoint" />
            <mxPoint x="250" y="540" as="targetPoint" />
          </mxGeometry>
        </mxCell>
        <mxCell id="2-meuyPm4zg7NjoBHuvu-37" value="&amp;lt;&amp;lt;Расширить&amp;gt;&amp;gt;" style="text;html=1;strokeColor=none;fillColor=none;align=center;verticalAlign=middle;whiteSpace=wrap;rounded=0;" vertex="1" parent="1">
          <mxGeometry x="600" y="140" width="60" height="30" as="geometry" />
        </mxCell>
        <mxCell id="2-meuyPm4zg7NjoBHuvu-39" value="&amp;lt;&amp;lt;Расширить&amp;gt;&amp;gt;" style="text;html=1;strokeColor=none;fillColor=none;align=center;verticalAlign=middle;whiteSpace=wrap;rounded=0;" vertex="1" parent="1">
          <mxGeometry x="650" y="170" width="60" height="30" as="geometry" />
        </mxCell>
        <mxCell id="2-meuyPm4zg7NjoBHuvu-40" value="&amp;lt;&amp;lt;Расширить&amp;gt;&amp;gt;" style="text;html=1;strokeColor=none;fillColor=none;align=center;verticalAlign=middle;whiteSpace=wrap;rounded=0;" vertex="1" parent="1">
          <mxGeometry x="650" y="210" width="60" height="30" as="geometry" />
        </mxCell>
        <mxCell id="2-meuyPm4zg7NjoBHuvu-41" value="&amp;lt;&amp;lt;Расширить&amp;gt;&amp;gt;" style="text;html=1;strokeColor=none;fillColor=none;align=center;verticalAlign=middle;whiteSpace=wrap;rounded=0;" vertex="1" parent="1">
          <mxGeometry x="640" y="240" width="60" height="30" as="geometry" />
        </mxCell>
        <mxCell id="2-meuyPm4zg7NjoBHuvu-42" value="&amp;lt;&amp;lt;Расширить&amp;gt;&amp;gt;" style="text;html=1;strokeColor=none;fillColor=none;align=center;verticalAlign=middle;whiteSpace=wrap;rounded=0;" vertex="1" parent="1">
          <mxGeometry x="580" y="280" width="60" height="30" as="geometry" />
        </mxCell>
        <mxCell id="2-meuyPm4zg7NjoBHuvu-43" value="&amp;lt;&amp;lt;Расширить&amp;gt;&amp;gt;" style="text;html=1;strokeColor=none;fillColor=none;align=center;verticalAlign=middle;whiteSpace=wrap;rounded=0;" vertex="1" parent="1">
          <mxGeometry x="500" y="382.5" width="60" height="30" as="geometry" />
        </mxCell>
        <mxCell id="2-meuyPm4zg7NjoBHuvu-44" value="&amp;lt;&amp;lt;Расширить&amp;gt;&amp;gt;" style="text;html=1;strokeColor=none;fillColor=none;align=center;verticalAlign=middle;whiteSpace=wrap;rounded=0;" vertex="1" parent="1">
          <mxGeometry x="360" y="382.5" width="60" height="30" as="geometry" />
        </mxCell>
        <mxCell id="2-meuyPm4zg7NjoBHuvu-45" value="&amp;lt;&amp;lt;Расширить&amp;gt;&amp;gt;" style="text;html=1;strokeColor=none;fillColor=none;align=center;verticalAlign=middle;whiteSpace=wrap;rounded=0;" vertex="1" parent="1">
          <mxGeometry x="190" y="320" width="60" height="30" as="geometry" />
        </mxCell>
        <mxCell id="2-meuyPm4zg7NjoBHuvu-46" value="&amp;lt;&amp;lt;Расширить&amp;gt;&amp;gt;" style="text;html=1;strokeColor=none;fillColor=none;align=center;verticalAlign=middle;whiteSpace=wrap;rounded=0;" vertex="1" parent="1">
          <mxGeometry x="60" y="320" width="60" height="30" as="geometry" />
        </mxCell>
      </root>
    </mxGraphModel>
  </diagram>
</mxfile>
